<svg width="18" height="14" viewBox="0 0 18 14" fill="none" xmlns="http://www.w3.org/2000/svg">
<path d="M8.87196 13.1782C5.77807 13.1782 2.8191 11.224 0.0743447 7.36655C0.0275623 7.3009 0.00164711 7.22228 7.59232e-05 7.14123C-0.00149527 7.06018 0.0213527 6.98057 0.0655546 6.9131C0.215183 6.68424 3.79179 1.30445 8.94879 1.18089C12.1084 1.09619 15.1259 3.02849 17.9239 6.89775C17.9712 6.96306 17.9977 7.04149 17.9999 7.12253C18.002 7.20357 17.9798 7.28335 17.9362 7.3512C17.7864 7.58396 14.2086 13.0529 9.04758 13.1761C8.98911 13.1774 8.93044 13.1782 8.87196 13.1782ZM0.874091 7.13012C3.461 10.6802 6.20862 12.4475 9.0258 12.3807C13.2076 12.283 16.4005 8.15882 17.1259 7.14041C14.5384 3.64708 11.7885 1.91702 8.97095 1.97628C4.7922 2.07419 1.60237 6.12452 0.874091 7.13012Z" fill="#6A737A"/>
<path d="M9.00003 10.4487C8.36385 10.4487 7.74195 10.2569 7.21299 9.89755C6.68403 9.53823 6.27175 9.02751 6.0283 8.42997C5.78484 7.83244 5.72114 7.17493 5.84525 6.54059C5.96937 5.90625 6.27572 5.32357 6.72556 4.86624C7.17541 4.40891 7.74855 4.09746 8.3725 3.97128C8.99646 3.84511 9.6432 3.90986 10.231 4.15737C10.8187 4.40488 11.3211 4.82402 11.6745 5.36178C12.028 5.89955 12.2166 6.53179 12.2166 7.17856C12.2156 8.04554 11.8764 8.87673 11.2734 9.48978C10.6704 10.1028 9.85282 10.4477 9.00003 10.4487ZM9.00003 4.70422C8.51866 4.70422 8.0481 4.84933 7.64786 5.12122C7.24762 5.3931 6.93567 5.77954 6.75145 6.23167C6.56724 6.68379 6.51905 7.1813 6.61296 7.66128C6.70687 8.14125 6.93867 8.58214 7.27904 8.92818C7.61942 9.27422 8.05309 9.50988 8.52521 9.60535C8.99733 9.70083 9.48669 9.65183 9.93141 9.46455C10.3761 9.27727 10.7563 8.96013 11.0237 8.55323C11.2911 8.14632 11.4339 7.66794 11.4339 7.17856C11.4332 6.52254 11.1765 5.8936 10.7202 5.42973C10.2639 4.96586 9.6453 4.70494 9.00003 4.70422Z" fill="#6A737A"/>
</svg>
