<svg width="20" height="20" viewBox="0 0 20 20" fill="none" xmlns="http://www.w3.org/2000/svg">
<path d="M15.8984 8.91406H12.8438V7.53125H15.8984H16.3984V7.03125V3.51562V3.01562H15.8984H12.3438C10.129 3.01562 8.32812 4.81648 8.32812 7.03125V8.91406H6.48438H5.98438V9.41406V12.9297V13.4297H6.48438H8.32812V19.5H2.92969C1.59053 19.5 0.5 18.4095 0.5 17.0703V2.92969C0.5 1.59053 1.59053 0.5 2.92969 0.5H17.0703C18.4095 0.5 19.5 1.59053 19.5 2.92969V17.0703C19.5 18.4095 18.4095 19.5 17.0703 19.5H12.8438V13.4297H15.3125H15.7361L15.8057 13.0119L16.3916 9.49626L16.4887 8.91406H15.8984Z" stroke="white"/>
<path d="M15.8984 8.91406H12.8438V7.53125H15.8984H16.3984V7.03125V3.51562V3.01562H15.8984H12.3438C10.129 3.01562 8.32812 4.81648 8.32812 7.03125V8.91406H6.48438H5.98438V9.41406V12.9297V13.4297H6.48438H8.32812V19.5H2.92969C1.59053 19.5 0.5 18.4095 0.5 17.0703V2.92969C0.5 1.59053 1.59053 0.5 2.92969 0.5H17.0703C18.4095 0.5 19.5 1.59053 19.5 2.92969V17.0703C19.5 18.4095 18.4095 19.5 17.0703 19.5H12.8438V13.4297H15.3125H15.7361L15.8057 13.0119L16.3916 9.49626L16.4887 8.91406H15.8984Z" stroke="url(#paint0_linear_1_824)"/>
<defs>
<linearGradient id="paint0_linear_1_824" x1="10" y1="0" x2="10" y2="20" gradientUnits="userSpaceOnUse">
<stop stop-color="white"/>
<stop offset="1" stop-color="white" stop-opacity="0"/>
</linearGradient>
</defs>
</svg>
