<svg width="87" height="86" fill="none" xmlns="http://www.w3.org/2000/svg"><path d="m43.672 0-43 43 43 43 43-43-43-43Zm10.092 53.092-20.185.002V32.906h20.187l-.002 20.186ZM43.089 21.987 32.874 32.202 22.659 42.416l-9.73-9.728 20.43-20.43 9.73 9.729Zm1.167 42.026L54.47 53.798l10.214-10.214 9.729 9.728-20.43 20.43-9.728-9.729Zm20.427-21.598L54.471 32.202 44.255 21.987l9.73-9.73 20.428 20.43-9.73 9.728Zm-42.026 1.17 10.215 10.216 10.213 10.212-9.727 9.727L12.93 53.312l9.727-9.727Z" fill="#AA182C"/></svg>